<?xml version="1.0" encoding="utf-8"?>
<svg version="1.1" xmlns:xlink="http://www.w3.org/1999/xlink" width="32px" height="37px" xmlns="http://www.w3.org/2000/svg">
  <g transform="matrix(1 0 0 1 -62 -725 )">
    <path d="M 24.0833333333333 1.40401785714286  L 30.5833333333333 7.84598214285714  C 30.9722222222222 8.23139880952381  31.3055555555556 8.75446428571429  31.5833333333333 9.41517857142857  C 31.8611111111111 10.0758928571429  32 10.6815476190476  32 11.2321428571429  L 32 35.0178571428571  C 32 35.5684523809524  31.8055555555556 36.0364583333333  31.4166666666667 36.421875  C 31.0277777777778 36.8072916666667  30.5555555555556 37  30 37  L 2 37  C 1.44444444444444 37  0.972222222222222 36.8072916666667  0.583333333333333 36.421875  C 0.194444444444444 36.0364583333333  0 35.5684523809524  0 35.0178571428571  L 0 1.98214285714286  C 0 1.43154761904762  0.194444444444444 0.963541666666665  0.583333333333333 0.578125  C 0.972222222222222 0.192708333333335  1.44444444444444 0  2 0  L 20.6666666666667 0  C 21.2222222222222 0  21.8333333333333 0.137648809523811  22.5 0.412946428571429  C 23.1666666666667 0.688244047619047  23.6944444444444 1.01860119047619  24.0833333333333 1.40401785714286  Z M 22.1875 3.26227678571429  C 22.0208333333333 3.09709821428571  21.7361111111111 2.94568452380952  21.3333333333333 2.80803571428571  L 21.3333333333333 10.5714285714286  L 29.1666666666667 10.5714285714286  C 29.0277777777778 10.1722470238095  28.875 9.89006696428571  28.7083333333333 9.72488839285714  L 22.1875 3.26227678571429  Z M 3 34  L 29 34  L 29 13.2142857142857  L 20.6666666666667 13.2142857142857  C 20.1111111111111 13.2142857142857  19.6388888888889 13.0215773809524  19.25 12.6361607142857  C 18.8611111111111 12.250744047619  18.6666666666667 11.7827380952381  18.6666666666667 11.2321428571429  L 18.6666666666667 3  L 3 3  L 3 34  Z " fill-rule="nonzero" fill="#000000" stroke="none" transform="matrix(1 0 0 1 62 725 )" />
  </g>
</svg>