<?xml version="1.0" encoding="utf-8"?>
<svg version="1.1" xmlns:xlink="http://www.w3.org/1999/xlink" width="24px" height="24px" xmlns="http://www.w3.org/2000/svg">
  <g transform="matrix(1 0 0 1 -743 -60 )">
    <path d="M 23.9744499645138 0.911931818181817  C 24.014194464159 1.14488636363636  23.9772888573456 1.36931818181818  23.8637331440738 1.58522727272727  L 12.9623846699787 23.4034090909091  C 12.7693399574166 23.8011363636364  12.4457061745919 24  11.9914833215046 24  C 11.9347054648687 24  11.8495386799148 23.9886363636364  11.735982966643 23.9659090909091  C 11.486160397445 23.9090909090909  11.2845990063875 23.78125  11.1312987934705 23.5823863636364  C 10.9779985805536 23.3835227272727  10.9013484740951 23.1590909090909  10.9013484740951 22.9090909090909  L 10.9013484740951 13.0909090909091  L 1.09013484740951 13.0909090909091  C 0.840312278211498 13.0909090909091  0.616039744499645 13.0142045454545  0.417317246273953 12.8607954545455  C 0.218594748048261 12.7073863636364  0.0908445706174592 12.5056818181818  0.0340667139815472 12.2556818181818  C -0.0227111426543648 12.0056818181818  0 11.7670454545455  0.102200141944642 11.5397727272727  C 0.204400283889283 11.3125  0.369056068133428 11.1420454545455  0.596167494677076 11.0284090909091  L 22.3988644428673 0.119318181818183  C 22.5464868701207 0.0397727272727257  22.7111426543648 0  22.8928317955997 0  C 23.1994322214336 0  23.4549325762952 0.107954545454543  23.6593328601845 0.323863636363638  C 23.8296664300923 0.482954545454543  23.9347054648687 0.678977272727271  23.9744499645138 0.911931818181817  Z " fill-rule="nonzero" fill="#000000" stroke="none" transform="matrix(1 0 0 1 743 60 )" />
  </g>
</svg>