<?xml version="1.0" encoding="utf-8"?>
<svg version="1.1" xmlns:xlink="http://www.w3.org/1999/xlink" width="9px" height="15px" xmlns="http://www.w3.org/2000/svg">
  <g transform="matrix(1 0 0 1 -12 -11 )">
    <path d="M 8.84536082474222 0.90180360721439  C 8.94845360824741 1.00200400801606  9 1.11723446893785  9 1.24749498998008  C 9 1.377755511022  8.94845360824741 1.4929859719438  8.84536082474222 1.59318637274546  L 2.76804123711338 7.5  L 8.84536082474222 13.4068136272545  C 8.94845360824741 13.5070140280562  9 13.622244488978  9 13.7525050100199  C 9 13.8827655310621  8.94845360824741 13.9979959919839  8.84536082474222 14.0981963927856  L 8.07216494845363 14.8496993987977  C 7.96907216494844 14.9498997995992  7.85051546391753 15  7.7164948453609 15  C 7.58247422680404 15  7.46391752577313 14.9498997995992  7.36082474226794 14.8496993987977  L 0.154639175257785 7.84569138276544  C 0.0515463917524812 7.74549098196397  0 7.63026052104217  0 7.5  C 0 7.36973947895783  0.0515463917524812 7.25450901803603  0.154639175257785 7.15430861723456  L 7.36082474226794 0.150300601202304  C 7.46391752577313 0.0501002004008342  7.58247422680404 0  7.7164948453609 0  C 7.85051546391753 0  7.96907216494844 0.0501002004008342  8.07216494845363 0.150300601202304  L 8.84536082474222 0.90180360721439  Z " fill-rule="nonzero" fill="#3399ff" stroke="none" transform="matrix(1 0 0 1 12 11 )" />
  </g>
</svg>