<?xml version="1.0" encoding="utf-8"?>
<svg version="1.1" xmlns:xlink="http://www.w3.org/1999/xlink" width="9px" height="15px" xmlns="http://www.w3.org/2000/svg">
  <g transform="matrix(1 0 0 1 -240 -11 )">
    <path d="M 8.84536082474187 7.15430861723448  C 8.94845360824718 7.25450901803612  9 7.36973947895791  9 7.5  C 9 7.63026052104209  8.94845360824718 7.74549098196388  8.84536082474187 7.84569138276552  L 1.63917525773184 14.8496993987976  C 1.53608247422676 14.9498997995993  1.41752577319585 15  1.2835051546391 15  C 1.14948453608224 15  1.03092783505133 14.9498997995993  0.927835051546367 14.8496993987976  L 0.154639175257785 14.0981963927855  C 0.0515463917528223 13.997995991984  0 13.8827655310622  0 13.75250501002  C 0 13.6222444889779  0.0515463917528223 13.5070140280561  0.154639175257785 13.4068136272546  L 6.23195876288651 7.5  L 0.154639175257785 1.59318637274544  C 0.0515463917528223 1.49298597194388  0 1.37775551102209  0 1.24749498998  C 0 1.11723446893782  0.0515463917528223 1.00200400801597  0.154639175257785 0.901803607214475  L 0.927835051546367 0.150300601202389  C 1.03092783505133 0.0501002004007489  1.14948453608224 0  1.2835051546391 0  C 1.41752577319585 0  1.53608247422676 0.0501002004007489  1.63917525773184 0.150300601202389  L 8.84536082474187 7.15430861723448  Z " fill-rule="nonzero" fill="#3399ff" stroke="none" transform="matrix(1 0 0 1 240 11 )" />
  </g>
</svg>