<?xml version="1.0" encoding="utf-8"?>
<svg version="1.1" xmlns:xlink="http://www.w3.org/1999/xlink" width="24px" height="24px" xmlns="http://www.w3.org/2000/svg">
  <g transform="matrix(1 0 0 1 -225 -131 )">
    <path d="M 19.4829545454545 11.0625  C 19.5852272727273 11.1647727272727  19.6363636363636 11.2954545454545  19.6363636363636 11.4545454545455  L 19.6363636363636 12.5454545454545  C 19.6363636363636 12.7045454545455  19.5852272727273 12.8352272727273  19.4829545454545 12.9375  C 19.3806818181818 13.0397727272727  19.25 13.0909090909091  19.0909090909091 13.0909090909091  L 13.0909090909091 13.0909090909091  L 13.0909090909091 19.0909090909091  C 13.0909090909091 19.25  13.0397727272727 19.3806818181818  12.9375 19.4829545454545  C 12.8352272727273 19.5852272727273  12.7045454545455 19.6363636363636  12.5454545454545 19.6363636363636  L 11.4545454545455 19.6363636363636  C 11.2954545454545 19.6363636363636  11.1647727272727 19.5852272727273  11.0625 19.4829545454545  C 10.9602272727273 19.3806818181818  10.9090909090909 19.25  10.9090909090909 19.0909090909091  L 10.9090909090909 13.0909090909091  L 4.90909090909091 13.0909090909091  C 4.75 13.0909090909091  4.61931818181818 13.0397727272727  4.51704545454545 12.9375  C 4.41477272727273 12.8352272727273  4.36363636363636 12.7045454545455  4.36363636363636 12.5454545454545  L 4.36363636363636 11.4545454545455  C 4.36363636363636 11.2954545454545  4.41477272727273 11.1647727272727  4.51704545454545 11.0625  C 4.61931818181818 10.9602272727273  4.75 10.9090909090909  4.90909090909091 10.9090909090909  L 10.9090909090909 10.9090909090909  L 10.9090909090909 4.90909090909091  C 10.9090909090909 4.75  10.9602272727273 4.61931818181818  11.0625 4.51704545454546  C 11.1647727272727 4.41477272727273  11.2954545454545 4.36363636363636  11.4545454545455 4.36363636363636  L 12.5454545454545 4.36363636363636  C 12.7045454545455 4.36363636363636  12.8352272727273 4.41477272727273  12.9375 4.51704545454546  C 13.0397727272727 4.61931818181818  13.0909090909091 4.75  13.0909090909091 4.90909090909091  L 13.0909090909091 10.9090909090909  L 19.0909090909091 10.9090909090909  C 19.25 10.9090909090909  19.3806818181818 10.9602272727273  19.4829545454545 11.0625  Z M 21.0170454545455 21.0170454545455  C 21.5511363636364 20.4829545454545  21.8181818181818 19.8409090909091  21.8181818181818 19.0909090909091  L 21.8181818181818 4.90909090909091  C 21.8181818181818 4.15909090909091  21.5511363636364 3.51704545454545  21.0170454545455 2.98295454545455  C 20.4829545454545 2.44886363636363  19.8409090909091 2.18181818181818  19.0909090909091 2.18181818181818  L 4.90909090909091 2.18181818181818  C 4.15909090909091 2.18181818181818  3.51704545454546 2.44886363636363  2.98295454545455 2.98295454545455  C 2.44886363636364 3.51704545454545  2.18181818181818 4.15909090909091  2.18181818181818 4.90909090909091  L 2.18181818181818 19.0909090909091  C 2.18181818181818 19.8409090909091  2.44886363636364 20.4829545454545  2.98295454545455 21.0170454545455  C 3.51704545454546 21.5511363636364  4.15909090909091 21.8181818181818  4.90909090909091 21.8181818181818  L 19.0909090909091 21.8181818181818  C 19.8409090909091 21.8181818181818  20.4829545454545 21.5511363636364  21.0170454545455 21.0170454545455  Z M 22.5596590909091 1.44034090909091  C 23.5198863636364 2.40056818181818  24 3.55681818181818  24 4.90909090909091  L 24 19.0909090909091  C 24 20.4431818181818  23.5198863636364 21.5994318181818  22.5596590909091 22.5596590909091  C 21.5994318181818 23.5198863636364  20.4431818181818 24  19.0909090909091 24  L 4.90909090909091 24  C 3.55681818181818 24  2.40056818181818 23.5198863636364  1.44034090909091 22.5596590909091  C 0.480113636363636 21.5994318181818  0 20.4431818181818  0 19.0909090909091  L 0 4.90909090909091  C 0 3.55681818181818  0.480113636363636 2.40056818181818  1.44034090909091 1.44034090909091  C 2.40056818181818 0.480113636363634  3.55681818181818 0  4.90909090909091 0  L 19.0909090909091 0  C 20.4431818181818 0  21.5994318181818 0.480113636363634  22.5596590909091 1.44034090909091  Z " fill-rule="nonzero" fill="#a28d8d" stroke="none" transform="matrix(1 0 0 1 225 131 )" />
  </g>
</svg>