<?xml version="1.0" encoding="utf-8"?>
<svg version="1.1" xmlns:xlink="http://www.w3.org/1999/xlink" width="16px" height="19px" xmlns="http://www.w3.org/2000/svg">
  <g transform="matrix(1 0 0 1 -498 -724 )">
    <path d="M 12.0416666666667 0.720982142857143  L 15.2916666666667 4.02901785714286  C 15.4861111111111 4.22693452380952  15.6527777777778 4.49553571428572  15.7916666666667 4.83482142857143  C 15.9305555555556 5.17410714285714  16 5.48511904761905  16 5.76785714285714  L 16 17.9821428571429  C 16 18.264880952381  15.9027777777778 18.5052083333333  15.7083333333333 18.703125  C 15.5138888888889 18.9010416666667  15.2777777777778 19  15 19  L 1 19  C 0.722222222222222 19  0.486111111111111 18.9010416666667  0.291666666666667 18.703125  C 0.0972222222222222 18.5052083333333  0 18.264880952381  0 17.9821428571429  L 0 1.01785714285714  C 0 0.735119047619047  0.0972222222222222 0.494791666666666  0.291666666666667 0.296875  C 0.486111111111111 0.098958333333334  0.722222222222222 0  1 0  L 10.3333333333333 0  C 10.6111111111111 0  10.9166666666667 0.0706845238095246  11.25 0.212053571428572  C 11.5833333333333 0.353422619047619  11.8472222222222 0.523065476190475  12.0416666666667 0.720982142857143  Z M 11.09375 1.67522321428572  C 11.0104166666667 1.59040178571428  10.8680555555556 1.51264880952381  10.6666666666667 1.44196428571428  L 10.6666666666667 5.42857142857143  L 14.5833333333333 5.42857142857143  C 14.5138888888889 5.22358630952381  14.4375 5.07868303571428  14.3541666666667 4.99386160714286  L 11.09375 1.67522321428572  Z M 1.33333333333333 17.6428571428571  L 14.6666666666667 17.6428571428571  L 14.6666666666667 6.78571428571428  L 10.3333333333333 6.78571428571428  C 10.0555555555556 6.78571428571428  9.81944444444444 6.68675595238095  9.625 6.48883928571428  C 9.43055555555556 6.29092261904762  9.33333333333333 6.05059523809524  9.33333333333333 5.76785714285714  L 9.33333333333333 1.35714285714286  L 1.33333333333333 1.35714285714286  L 1.33333333333333 17.6428571428571  Z M 7.79166666666667 8.83203125  C 8.17361111111111 9.99125744047619  8.68055555555556 10.8324032738095  9.3125 11.35546875  C 9.54166666666667 11.5392485119048  9.83333333333333 11.7371651785714  10.1875 11.94921875  C 10.5972222222222 11.8997395833333  11.0034722222222 11.875  11.40625 11.875  C 12.4270833333333 11.875  13.0416666666667 12.0481770833333  13.25 12.39453125  C 13.3611111111111 12.550037202381  13.3680555555556 12.7338169642857  13.2708333333333 12.9458705357143  C 13.2708333333333 12.9529389880952  13.2673611111111 12.9600074404762  13.2604166666667 12.9670758928571  L 13.2395833333333 12.98828125  L 13.2395833333333 12.9988839285714  C 13.1979166666667 13.2674851190476  12.9513888888889 13.4017857142857  12.5 13.4017857142857  C 12.1666666666667 13.4017857142857  11.7673611111111 13.3311011904762  11.3020833333333 13.1897321428571  C 10.8368055555556 13.0483630952381  10.3854166666667 12.8610491071429  9.94791666666667 12.6277901785714  C 8.41319444444444 12.7974330357143  7.05208333333333 13.0907738095238  5.86458333333333 13.5078125  C 4.80208333333333 15.3597470238095  3.96180555555556 16.2857142857143  3.34375 16.2857142857143  C 3.23958333333333 16.2857142857143  3.14236111111111 16.260974702381  3.05208333333333 16.2114955357143  L 2.80208333333333 16.0842633928571  C 2.79513888888889 16.0771949404762  2.77430555555556 16.0595238095238  2.73958333333333 16.03125  C 2.67013888888889 15.9605654761905  2.64930555555556 15.8333333333333  2.67708333333333 15.6495535714286  C 2.73958333333333 15.3668154761905  2.93402777777778 15.0434337797619  3.26041666666667 14.6794084821429  C 3.58680555555556 14.3153831845238  4.04513888888889 13.9743303571429  4.63541666666667 13.65625  C 4.73263888888889 13.5926339285714  4.8125 13.6138392857143  4.875 13.7198660714286  C 4.88888888888889 13.7340029761905  4.89583333333333 13.7481398809524  4.89583333333333 13.7622767857143  C 5.25694444444445 13.1614583333333  5.62847222222222 12.4652157738095  6.01041666666667 11.6735491071429  C 6.48263888888889 10.7122395833333  6.84375 9.78627232142857  7.09375 8.89564732142857  C 6.92708333333333 8.31603422619047  6.82118055555556 7.75232514880952  6.77604166666667 7.20452008928572  C 6.73090277777778 6.6567150297619  6.75347222222222 6.20610119047619  6.84375 5.85267857142857  C 6.92013888888889 5.56994047619048  7.06597222222222 5.42857142857143  7.28125 5.42857142857143  L 7.5 5.42857142857143  L 7.51041666666667 5.42857142857143  C 7.67013888888889 5.42857142857143  7.79166666666667 5.48158482142857  7.875 5.58761160714286  C 8 5.73604910714286  8.03125 5.97637648809524  7.96875 6.30859375  C 7.95486111111111 6.35100446428572  7.94097222222222 6.37927827380952  7.92708333333333 6.39341517857143  C 7.93402777777778 6.41462053571428  7.9375 6.44289434523809  7.9375 6.47823660714286  L 7.9375 6.79631696428572  C 7.92361111111111 7.66573660714286  7.875 8.34430803571428  7.79166666666667 8.83203125  Z M 3.828125 14.9285714285714  C 3.57465277777778 15.2395833333333  3.40277777777778 15.5011160714286  3.3125 15.7131696428571  C 3.67361111111111 15.5435267857143  4.14930555555556 14.985119047619  4.73958333333333 14.0379464285714  C 4.38541666666667 14.3206845238095  4.08159722222222 14.6175595238095  3.828125 14.9285714285714  Z M 7.45833333333333 5.9375  L 7.45833333333333 5.95870535714286  C 7.35416666666667 6.25558035714286  7.34722222222222 6.72209821428572  7.4375 7.35825892857143  C 7.44444444444445 7.30877976190476  7.46875 7.15327380952381  7.51041666666667 6.89174107142857  C 7.51041666666667 6.87053571428572  7.53472222222222 6.71856398809524  7.58333333333333 6.43582589285714  C 7.59027777777778 6.40755208333333  7.60416666666667 6.37927827380952  7.625 6.35100446428572  C 7.61805555555556 6.34393601190476  7.61458333333333 6.33686755952381  7.61458333333333 6.32979910714286  C 7.60763888888889 6.31566220238095  7.60416666666667 6.30505952380952  7.60416666666667 6.29799107142857  C 7.59722222222222 6.14248511904762  7.55208333333333 6.01525297619048  7.46875 5.91629464285714  C 7.46875 5.92336309523809  7.46527777777778 5.93043154761905  7.45833333333333 5.9375  Z M 6.63541666666667 12.0870535714286  C 6.42708333333333 12.4828869047619  6.27083333333333 12.7762276785714  6.16666666666667 12.9670758928571  C 7.10416666666667 12.5853794642857  8.09027777777778 12.2991071428571  9.125 12.1082589285714  C 9.11111111111111 12.1011904761905  9.06597222222222 12.067615327381  8.98958333333333 12.0075334821429  C 8.91319444444444 11.9474516369048  8.85763888888889 11.8997395833333  8.82291666666667 11.8643973214286  C 8.29513888888889 11.3908110119048  7.85416666666667 10.768787202381  7.5 9.99832589285714  C 7.3125 10.606212797619  7.02430555555556 11.3024553571429  6.63541666666667 12.0870535714286  Z M 12.9166666666667 12.8292410714286  C 12.9166666666667 12.8221726190476  12.9097222222222 12.8115699404762  12.8958333333333 12.7974330357143  C 12.7291666666667 12.6277901785714  12.2430555555556 12.54296875  11.4375 12.54296875  C 11.9652777777778 12.7408854166667  12.3958333333333 12.83984375  12.7291666666667 12.83984375  C 12.8263888888889 12.83984375  12.8888888888889 12.8363095238095  12.9166666666667 12.8292410714286  Z " fill-rule="nonzero" fill="#000000" stroke="none" transform="matrix(1 0 0 1 498 724 )" />
  </g>
</svg>