<?xml version="1.0" encoding="utf-8"?>
<svg version="1.1" xmlns:xlink="http://www.w3.org/1999/xlink" width="32px" height="32px" xmlns="http://www.w3.org/2000/svg">
  <g transform="matrix(1 0 0 1 -429 -241 )">
    <path d="M 25.9772727272727 14.75  C 26.1136363636364 14.8863636363636  26.1818181818182 15.0606060606061  26.1818181818182 15.2727272727273  L 26.1818181818182 16.7272727272727  C 26.1818181818182 16.9393939393939  26.1136363636364 17.1136363636364  25.9772727272727 17.25  C 25.8409090909091 17.3863636363636  25.6666666666667 17.4545454545455  25.4545454545455 17.4545454545455  L 17.4545454545455 17.4545454545455  L 17.4545454545455 25.4545454545455  C 17.4545454545455 25.6666666666667  17.3863636363636 25.8409090909091  17.25 25.9772727272727  C 17.1136363636364 26.1136363636364  16.9393939393939 26.1818181818182  16.7272727272727 26.1818181818182  L 15.2727272727273 26.1818181818182  C 15.0606060606061 26.1818181818182  14.8863636363636 26.1136363636364  14.75 25.9772727272727  C 14.6136363636364 25.8409090909091  14.5454545454545 25.6666666666667  14.5454545454545 25.4545454545455  L 14.5454545454545 17.4545454545455  L 6.54545454545455 17.4545454545455  C 6.33333333333333 17.4545454545455  6.15909090909091 17.3863636363636  6.02272727272727 17.25  C 5.88636363636364 17.1136363636364  5.81818181818182 16.9393939393939  5.81818181818182 16.7272727272727  L 5.81818181818182 15.2727272727273  C 5.81818181818182 15.0606060606061  5.88636363636364 14.8863636363636  6.02272727272727 14.75  C 6.15909090909091 14.6136363636364  6.33333333333333 14.5454545454545  6.54545454545455 14.5454545454545  L 14.5454545454545 14.5454545454545  L 14.5454545454545 6.54545454545455  C 14.5454545454545 6.33333333333333  14.6136363636364 6.15909090909091  14.75 6.02272727272727  C 14.8863636363636 5.88636363636364  15.0606060606061 5.81818181818182  15.2727272727273 5.81818181818182  L 16.7272727272727 5.81818181818182  C 16.9393939393939 5.81818181818182  17.1136363636364 5.88636363636364  17.25 6.02272727272727  C 17.3863636363636 6.15909090909091  17.4545454545455 6.33333333333333  17.4545454545455 6.54545454545455  L 17.4545454545455 14.5454545454545  L 25.4545454545455 14.5454545454545  C 25.6666666666667 14.5454545454545  25.8409090909091 14.6136363636364  25.9772727272727 14.75  Z M 28.0227272727273 28.0227272727273  C 28.7348484848485 27.3106060606061  29.0909090909091 26.4545454545455  29 25.4545454545455  L 29 6.54545454545455  C 29.0909090909091 5.54545454545455  28.7348484848485 4.68939393939394  28.0227272727273 3.97727272727273  C 27.3106060606061 3.26515151515151  26.4545454545455 2.90909090909091  25.4545454545455 3  L 6.54545454545455 3  C 5.54545454545455 2.90909090909091  4.68939393939394 3.26515151515151  3.97727272727273 3.97727272727273  C 3.26515151515152 4.68939393939394  2.90909090909091 5.54545454545455  3 6.54545454545455  L 3 25.4545454545455  C 2.90909090909091 26.4545454545455  3.26515151515152 27.3106060606061  3.97727272727273 28.0227272727273  C 4.68939393939394 28.7348484848485  5.54545454545455 29.0909090909091  6.54545454545455 29  L 25.4545454545455 29  C 26.4545454545455 29.0909090909091  27.3106060606061 28.7348484848485  28.0227272727273 28.0227272727273  Z M 30.0795454545455 1.92045454545455  C 31.3598484848485 3.20075757575757  32 4.74242424242424  32 6.54545454545455  L 32 25.4545454545455  C 32 27.2575757575758  31.3598484848485 28.7992424242424  30.0795454545455 30.0795454545455  C 28.7992424242424 31.3598484848485  27.2575757575758 32  25.4545454545455 32  L 6.54545454545455 32  C 4.74242424242424 32  3.20075757575758 31.3598484848485  1.92045454545455 30.0795454545455  C 0.640151515151515 28.7992424242424  0 27.2575757575758  0 25.4545454545455  L 0 6.54545454545455  C 0 4.74242424242424  0.640151515151515 3.20075757575757  1.92045454545455 1.92045454545455  C 3.20075757575758 0.640151515151512  4.74242424242424 0  6.54545454545455 0  L 25.4545454545455 0  C 27.2575757575758 0  28.7992424242424 0.640151515151512  30.0795454545455 1.92045454545455  Z " fill-rule="nonzero" fill="#0010ff" stroke="none" transform="matrix(1 0 0 1 429 241 )" />
  </g>
</svg>